<?xml version="1.0" standalone="no"?>
<!DOCTYPE svg PUBLIC "-//W3C//DTD SVG 20010904//EN"
 "http://www.w3.org/TR/2001/REC-SVG-20010904/DTD/svg10.dtd">
<svg version="1.0" xmlns="http://www.w3.org/2000/svg"
 width="336.000000pt" height="336.000000pt" viewBox="0 0 336.000000 336.000000"
 preserveAspectRatio="xMidYMid meet">
<metadata>
Created by potrace 1.11, written by Peter Selinger 2001-2013
</metadata>
<g transform="translate(0.000000,336.000000) scale(0.100000,-0.100000)"
fill="#000000" stroke="none">
<path d="M687 2364 c-1 -1 -37 -4 -80 -8 -112 -8 -250 -27 -266 -36 -8 -4 34
-8 95 -9 60 0 119 -3 131 -5 11 -3 43 -8 70 -12 67 -10 157 -39 217 -72 44
-23 59 -26 106 -22 108 11 294 1 470 -27 88 -13 229 -56 296 -89 82 -40 118
-76 133 -131 10 -35 7 -188 -4 -248 -3 -16 -10 -55 -16 -85 -19 -99 -67 -244
-99 -293 -99 -156 -260 -228 -518 -231 l-134 -1 -19 -55 c-10 -30 -19 -58 -19
-63 0 -9 262 -4 325 7 170 27 274 75 366 167 88 87 124 164 189 404 81 297 97
329 162 327 41 -1 68 -33 93 -110 10 -31 20 -61 21 -67 6 -34 76 -290 90 -331
37 -112 110 -198 204 -242 45 -21 72 -26 148 -28 194 -4 347 55 411 160 39 62
85 230 106 386 3 25 8 52 10 60 2 8 7 37 10 65 6 55 28 95 50 95 11 0 15 12
16 43 1 23 2 70 3 103 l3 62 -41 20 c-79 37 -178 66 -271 77 -27 4 -61 8 -75
11 -30 5 -289 6 -298 0 -4 -2 -34 -6 -67 -10 -69 -7 -123 -22 -249 -66 -98
-34 -168 -41 -231 -20 -22 7 -96 39 -166 71 -108 50 -249 100 -323 113 -11 2
-39 9 -61 14 -22 6 -56 13 -75 16 -19 3 -46 8 -60 11 -75 15 -234 34 -342 41
-95 6 -307 11 -311 8z m2191 -293 c182 -35 224 -92 217 -298 -2 -65 -6 -129
-9 -143 -2 -14 -7 -43 -11 -65 -12 -82 -36 -167 -59 -214 -44 -85 -159 -141
-305 -146 -153 -5 -260 56 -317 180 -54 117 -99 357 -92 490 4 88 22 118 93
154 102 53 323 72 483 42z"/>
<path d="M1471 1958 l2 -63 -36 3 c-81 6 -145 -53 -134 -125 3 -18 2 -33 -2
-33 -4 0 -8 19 -10 42 -1 27 -11 55 -27 75 -21 27 -32 33 -64 33 -21 0 -50 -5
-63 -11 -46 -21 -73 -99 -53 -157 10 -28 -17 -41 -39 -18 -9 9 -20 16 -25 16
-4 0 -13 14 -19 30 -5 17 -6 28 -2 25 5 -2 8 12 7 33 -1 33 2 37 22 35 12 -2
22 2 22 7 0 6 8 10 17 10 13 0 9 8 -16 31 -25 23 -36 27 -42 18 -4 -7 -5 5 -2
27 4 35 2 42 -20 57 l-25 16 -7 -64 c-5 -47 -11 -64 -23 -67 -23 -6 -26 -46
-4 -50 13 -2 16 -12 14 -45 -4 -55 20 -106 58 -120 24 -9 36 -8 67 8 32 16 39
17 53 4 9 -8 25 -16 36 -18 10 -1 24 -6 29 -9 13 -8 42 8 32 18 -4 4 -2 13 4
21 9 10 6 13 -13 13 -28 0 -71 27 -63 41 4 5 1 9 -4 9 -19 0 -12 38 12 66 17
20 29 25 44 20 28 -9 40 -47 39 -123 -1 -35 3 -63 8 -63 5 0 2 -8 -5 -17 -7
-10 -10 -15 -5 -11 5 4 17 -4 28 -17 11 -14 27 -25 35 -25 12 0 11 4 -6 19
-12 11 -24 32 -26 48 -2 15 -2 22 1 16 9 -20 20 -15 21 9 1 11 8 25 15 29 10
7 10 9 1 9 -7 0 -13 5 -13 10 0 19 18 10 53 -25 19 -19 42 -36 51 -36 9 -1 24
-2 34 -3 9 -1 23 -5 31 -10 9 -6 12 -5 7 2 -3 6 3 16 14 22 18 10 24 7 21 -12
0 -4 5 -5 13 -2 8 3 16 1 20 -4 6 -11 64 -3 72 10 3 5 -2 9 -12 8 -35 -4 -42
0 -49 33 -4 17 -9 38 -10 45 -2 6 2 12 8 12 7 0 6 5 -3 10 -13 9 -13 11 0 20
8 5 10 10 4 10 -7 0 -14 20 -16 45 -2 25 1 45 5 45 5 0 6 4 3 8 -3 4 -7 28
-10 52 -5 41 -25 70 -49 70 -4 0 -7 -28 -6 -62z m4 -125 c0 -27 2 -70 6 -96 4
-39 2 -50 -11 -57 -12 -7 -23 -2 -41 18 -14 15 -33 32 -42 37 -10 6 -19 17
-20 25 -2 8 -7 21 -11 29 -6 10 -5 12 3 7 8 -5 11 -2 9 9 -2 10 4 21 12 25 8
5 33 17 55 29 22 11 40 20 40 20 1 1 0 -20 0 -46z"/>
<path d="M184 1969 c-52 -15 -79 -76 -60 -134 3 -11 36 -42 72 -68 50 -37 64
-54 62 -70 -4 -30 -45 -48 -90 -41 -50 8 -48 -2 2 -16 22 -6 38 -15 35 -19 -7
-12 40 -19 59 -9 9 5 27 26 42 46 17 25 24 30 22 17 -2 -11 -10 -25 -18 -32
-8 -6 -12 -15 -7 -19 4 -4 7 -2 7 4 0 7 4 12 8 12 5 0 7 -28 6 -62 -3 -55 -2
-60 9 -38 7 14 19 26 27 28 22 5 26 17 24 67 -2 45 10 57 33 34 16 -16 48 -3
63 26 7 13 16 22 20 20 15 -9 4 123 -13 148 -23 35 -79 53 -118 37 -16 -7 -29
-15 -30 -19 -2 -11 -7 -86 -8 -136 l-2 -50 -15 35 c-8 19 -31 46 -52 60 -20
14 -39 27 -42 31 -3 3 -13 8 -22 12 -12 4 -15 12 -11 23 4 12 3 15 -5 10 -16
-10 -15 16 1 36 17 21 37 26 70 17 19 -5 25 -4 21 3 -5 7 -1 9 9 5 11 -4 17
-1 17 7 0 11 -72 49 -83 45 -1 0 -16 -5 -33 -10z m252 -136 c23 -31 17 -81
-12 -108 -15 -14 -30 -25 -34 -25 -12 0 -4 37 14 66 l17 29 -20 -23 c-19 -22
-20 -22 -18 -2 1 11 5 20 10 20 5 0 4 7 -3 15 -8 10 -9 15 -2 15 6 0 9 7 6 15
-9 21 25 19 42 -2z"/>
<path d="M585 1882 c-16 -11 -36 -26 -44 -36 -17 -21 -32 -106 -18 -106 5 0 7
-7 3 -15 -3 -8 0 -15 7 -15 7 0 18 -9 25 -20 7 -11 19 -20 28 -20 8 0 13 -4
10 -8 -3 -5 0 -9 7 -9 7 0 17 -2 22 -3 16 -5 85 11 91 22 3 5 -5 6 -19 2 -27
-6 -68 3 -64 14 3 12 -29 52 -36 45 -4 -3 -8 -2 -8 3 -9 71 -8 73 18 93 26 21
54 27 66 14 10 -9 -65 -43 -78 -35 -5 3 -4 -1 3 -10 9 -11 10 -18 2 -23 -16
-10 -12 -22 8 -20 30 4 77 17 89 27 7 5 17 7 23 3 6 -4 10 -3 8 2 -1 4 2 23 6
42 7 30 5 38 -14 53 -29 24 -96 23 -135 0z"/>
<path d="M803 1885 c-36 -15 -63 -60 -63 -103 0 -35 37 -93 68 -107 12 -5 22
-13 22 -17 0 -7 79 0 92 8 19 12 6 20 -23 16 -21 -3 -30 -1 -25 6 3 6 -10 20
-29 32 -32 20 -37 26 -34 46 0 4 -5 11 -13 15 -11 7 -11 9 1 9 7 0 11 6 8 14
-9 23 20 42 75 48 9 1 15 5 12 9 -2 4 1 11 8 15 8 5 6 10 -8 15 -29 11 -56 10
-91 -6z"/>
<path d="M1627 1872 c-21 -14 -40 -36 -44 -51 -3 -14 -11 -29 -17 -33 -8 -6
-8 -8 1 -8 6 0 9 -8 7 -17 -6 -21 51 -93 72 -93 8 0 13 -4 9 -9 -3 -6 6 -8 21
-5 15 3 23 1 20 -5 -4 -5 -1 -13 5 -17 8 -4 9 -3 5 4 -4 7 7 13 29 18 46 8 45
22 -2 20 -30 -1 -38 3 -37 17 1 9 -2 17 -8 17 -16 0 -58 52 -58 72 0 12 4 17
12 12 8 -5 9 -2 5 9 -4 12 2 21 23 32 50 26 84 15 39 -13 -13 -9 -18 -9 -14
-2 4 7 -1 7 -14 -2 -12 -7 -19 -18 -17 -25 3 -6 -2 -14 -10 -17 -29 -11 -4
-24 30 -16 19 4 37 5 40 2 4 -3 6 0 6 7 0 7 6 11 13 8 8 -3 20 3 28 14 13 19
36 28 25 10 -7 -11 20 -8 31 3 4 4 1 6 -7 4 -8 -2 -14 3 -12 10 1 8 -2 11 -8
7 -7 -4 -10 -1 -9 6 13 68 -86 92 -164 41z"/>
<path d="M839 1793 c-13 -16 -12 -17 4 -4 9 7 17 15 17 17 0 8 -8 3 -21 -13z"/>
<path d="M1160 1800 c-12 -7 -10 -9 8 -7 12 0 22 5 22 9 0 11 -12 10 -30 -2z"/>
<path d="M706 1758 c3 -4 9 -8 15 -8 5 0 9 4 9 8 0 5 -7 9 -15 9 -8 0 -12 -4
-9 -9z"/>
<path d="M397 1653 c-10 -9 -9 -23 1 -23 5 0 9 7 9 15 0 17 -1 18 -10 8z"/>
<path d="M430 1641 c0 -6 4 -13 10 -16 6 -3 7 1 4 9 -7 18 -14 21 -14 7z"/>
<path d="M1067 1639 c7 -7 15 -10 18 -7 3 3 -2 9 -12 12 -14 6 -15 5 -6 -5z"/>
<path d="M606 1584 c-3 -9 -6 -40 -6 -70 l0 -54 -44 2 c-35 3 -43 7 -43 23 -2
86 -3 93 -25 98 -12 4 -24 4 -26 2 -3 -2 -5 -72 -6 -155 -1 -140 4 -179 17
-129 3 12 10 18 16 14 6 -3 14 2 18 12 4 10 11 21 17 25 7 5 7 8 -1 8 -7 0
-13 5 -13 11 0 5 6 7 13 3 10 -6 10 -4 0 7 -21 21 -16 25 30 25 l43 -1 -3 -92
c-2 -59 0 -93 7 -93 5 0 9 3 9 8 -4 24 3 43 14 39 6 -2 11 -11 9 -18 -2 -8 0
-10 5 -6 4 5 9 13 9 18 1 5 2 12 4 17 1 4 1 25 0 47 -2 43 9 45 12 2 1 -14 5
-24 9 -21 4 2 14 -4 21 -13 13 -18 78 -27 78 -11 0 4 6 8 13 8 18 0 36 34 42
82 l5 43 -13 -35 c-10 -24 -20 -34 -31 -32 -10 2 -24 -2 -32 -9 -11 -9 -14 -9
-14 0 0 7 -4 10 -9 6 -5 -3 -13 4 -16 16 -4 13 -2 25 5 29 10 6 9 9 0 12 -22
7 11 63 38 63 12 0 21 -4 20 -10 -2 -5 -7 -9 -11 -7 -5 1 -5 -3 -2 -9 5 -8 10
-8 18 0 16 16 27 14 27 -5 0 -10 6 -14 14 -11 10 4 15 -9 19 -51 4 -35 12 -59
22 -64 8 -5 12 -14 9 -20 -4 -7 -2 -8 4 -4 7 4 18 4 25 -1 17 -11 37 -13 37
-3 0 11 39 20 56 13 8 -3 12 -8 9 -12 -2 -4 2 -8 9 -8 8 0 12 7 8 15 -4 11 -2
13 9 7 11 -7 12 -6 2 6 -10 12 -10 18 0 29 6 7 7 10 1 7 -7 -4 -11 15 -11 56
0 34 -1 82 -2 107 -2 44 -2 45 -16 20 -8 -14 -14 -21 -15 -15 0 5 -5 4 -11 -2
-7 -7 -11 -33 -11 -60 1 -26 -4 -59 -11 -73 -14 -29 -56 -37 -58 -11 0 9 -2
31 -4 49 -2 18 0 30 5 27 5 -3 12 -1 15 5 4 6 1 9 -7 8 -9 -2 -14 13 -16 55
-2 31 -7 57 -11 57 -5 0 -9 -6 -8 -12 1 -34 -4 -48 -18 -48 -8 0 -15 -6 -15
-12 -1 -9 -5 -8 -13 3 -31 40 -90 47 -127 14 -9 -8 -20 -12 -25 -8 -4 5 -6 4
-3 -2 3 -5 0 -26 -7 -45 l-13 -35 1 57 c0 51 2 56 16 45 12 -8 11 -6 -1 9 -10
11 -18 28 -18 37 0 24 -36 41 -44 21z"/>
<path d="M1084 1517 c-43 -22 -58 -73 -29 -97 8 -7 12 -17 8 -23 -3 -6 -1 -7
6 -3 16 10 81 -13 81 -29 0 -34 -84 -29 -95 5 -4 11 -11 18 -16 15 -5 -4 -3
-17 4 -33 8 -15 12 -35 10 -44 -3 -12 1 -18 12 -18 9 0 14 -4 11 -9 -4 -5 3
-7 14 -4 11 3 20 0 20 -6 0 -6 5 -11 11 -11 5 0 8 4 5 9 -3 4 6 13 19 19 20 9
26 8 35 -6 11 -16 11 -16 6 1 -3 10 1 29 10 42 l16 25 29 -28 c46 -44 69 -62
69 -54 0 4 19 8 41 9 23 0 46 6 52 12 7 7 0 9 -25 5 -30 -5 -37 -2 -53 22 -11
16 -18 33 -17 37 1 5 -3 5 -9 1 -15 -9 -29 14 -29 47 0 31 33 64 55 55 9 -3
13 -2 10 4 -7 12 5 13 23 1 10 -6 5 -11 -17 -20 -16 -7 -34 -10 -40 -7 -6 4
-8 -2 -6 -14 2 -11 0 -20 -6 -20 -5 0 -9 -7 -9 -15 0 -15 22 -14 75 5 11 4 28
6 37 5 10 -2 17 0 16 3 -3 14 14 42 22 37 16 -10 -10 60 -27 73 -23 16 -88 15
-123 -3 -38 -20 -70 -62 -70 -94 0 -25 0 -25 -15 -4 -8 11 -26 24 -40 27 -14
4 -25 12 -25 19 0 9 -2 9 -8 1 -5 -9 -11 -8 -20 2 -11 12 -10 14 5 15 10 1 23
1 30 0 6 -1 14 3 18 9 3 5 16 10 28 10 20 0 20 1 5 17 -20 19 -77 25 -104 10z"/>
<path d="M536 1387 c3 -10 9 -15 12 -12 3 3 0 11 -7 18 -10 9 -11 8 -5 -6z"/>
<path d="M1086 1382 c-3 -5 1 -9 9 -9 8 0 12 4 9 9 -3 4 -7 8 -9 8 -2 0 -6 -4
-9 -8z"/>
<path d="M1426 1378 c3 -5 10 -6 15 -3 13 9 11 12 -6 12 -8 0 -12 -4 -9 -9z"/>
<path d="M1560 1367 c0 -9 11 -12 35 -9 19 2 35 8 35 13 0 5 -16 9 -35 9 -22
0 -35 -5 -35 -13z"/>
<path d="M523 1318 c-11 -19 -13 -39 -1 -32 5 3 7 9 4 12 -3 3 -1 11 5 19 6 7
9 13 6 13 -3 0 -9 -6 -14 -12z"/>
<path d="M1195 1310 c-3 -6 1 -7 9 -4 18 7 21 14 7 14 -6 0 -13 -4 -16 -10z"/>
<path d="M1149 1263 c-13 -16 -12 -17 4 -4 16 13 21 21 13 21 -2 0 -10 -8 -17
-17z"/>
<path d="M727 1259 c7 -7 15 -10 18 -7 3 3 -2 9 -12 12 -14 6 -15 5 -6 -5z"/>
<path d="M970 1259 c0 -5 5 -7 10 -4 6 3 10 8 10 11 0 2 -4 4 -10 4 -5 0 -10
-5 -10 -11z"/>
</g>
</svg>
